<?xml version="1.0" encoding="UTF-8"?><svg id="Layer_1" xmlns="http://www.w3.org/2000/svg" width="324.54" height="494.55" viewBox="0 0 324.54 494.55"><defs><style>.cls-1{fill:#fff;stroke-width:0px;}</style></defs><path class="cls-1" d="M39.52,306.13c2.47-4.93,4.46-10.1,6.84-15.15,2.5-4.92,4.95-9.97,7.22-14.96,4.37-8.21,7.64-20.11,15.23-25.36-2.47-2.67-5.47-4.75-8.04-7.35-4.04-4.05-7.17-9.53-8.3-15.35-1.23,3.07-2.86,6.76-4.33,9.96-3.32,10.39-10.16,17.65-11.47,29.5,2.42-4.48,4.18-9.25,7.46-13.27.15-.18.28-.13.2.07-4.97,12.1-6.93,24.79-10.07,37.48.19-.09,3.27-2.16,3.47-2.21.56,2.82.02,5.86.28,8.76.15.8.55,8.99,1.51,7.88ZM42.57,273.89c.22-1,1.08-4.35,1.18-4.67,3.31-8.59,7.76-16.26,13.23-22.83l.12-.15c.53-.23.78-.04.92.49l-.05.18c-1.21,4.15-4.16,8.84-7.01,13.39-1.81,2.89-3.69,5.89-5.11,8.72-.27.48-.5.97-.73,1.46-.46.97-1.93,2.93-2.43,3.52-.1.11-.15.06-.12-.11Z"/><path class="cls-1" d="M322.21,200.29c-2.36-5.85-8.52-15.17-24-15.83,2.71-23.78-3.04-31.89-17.25-40.8-.04-.11-.07-.22-.08-.31.31-9.81.06-16.99-5.76-25.96-.5-1.68-1.16-5.06-1.41-6.97-.16-6.67-2.5-9.11-6.01-12.79l-.02-.02c-2.47-2.87-5.27-5.78-9.05-9.39-5.05-5.32-5.7-13.3-6.38-21.75-.16-1.95-.32-3.97-.54-5.92v-.12c-1.01-7.22-3.52-13.86-7.48-19.73l-.3-.4C221.94,13.79,190.89-.88,158.73.04c-31.85.91-61.55,16.94-81.47,43.96l-.27.41c-4.04,6.79-4.54,14.53-4.98,21.36-.15,2.34-.29,4.55-.56,6.68-.7,4.02-1.82,9.07-4.33,12.96-1.65,1.93-3.65,3.83-5.76,5.83-6.62,6.28-14.85,14.09-13.26,26.15l.02.15c.05.33.01.73-.14,1.15-.18.52-.73,1.27-.93,1.54-5.73,7.86-6.84,13.19-6.88,21.8-13.13,8.34-19.9,25-16.18,39.93.16.79.36,1.54.58,2.25-11.68.6-21.23,8.64-23.72,20.73-4.78,23.02,11.87,41.66,22.4,50.84.46.49.98.92,1.52,1.38.13.11.29.24.45.38-.53.69-1.19,1.48-1.78,2.1l-.25.29c-1.63,2-1.88,4.74-.63,6.99.77,1.37,1.98,2.37,3.4,2.87.15,1.69.51,3.05.92,4.42.39,1.3.61,2.02.47,3.69-.18,1.68-.28,3.28-.37,4.83-.16,2.76-.31,5.37-.96,7.9-.43,1.45-.98,2.94-1.56,4.51l-.44,1.2c-1.29,3.39.26,6.17,2.43,7.45,1,.57,1.97.86,2.9.96.22,1.19.47,2.34.71,3.44.39,1.79.77,3.48.93,5.07-.75,5.7-1.9,12.09-5.42,17.13-1.3,1.54-1.84,3.48-1.47,5.27.37,1.76,1.59,3.24,3.28,3.95l.65.27.7.08c1.87.22,3.59-.22,5.16-.98.6,3.83,1.54,7.55,2.46,11.19l.45,1.78c.56,2.31,1.13,5.03,1.11,7.65-.06,1.97.73,3.82,2.15,4.98,1.37,1.12,3.15,1.5,4.88,1.05l.67-.17.59-.35c.64-.38,1.21-.8,1.72-1.26,1.97,3.4,4.28,6.88,7.47,10.43.42.48.99,1.16,1.37,1.82,2.74,8.48,5.14,16.73,4.74,24.56l-.02.42.05.42c.56,4.79,4.25,5.36,4.98,5.43,1.27.11,2.73-.06,4.21-1.46l.08.11c2.7,3.62,5.39,3.87,7.34,3.29,1.49,2.45,3.08,4.9,4.98,7.19,1.77,2.4,3.8,4.29,5.77,6.11,1.4,1.3,2.72,2.52,3.81,3.82.6.86,1.03,2.06,1.54,3.44.28.78.58,1.59.96,2.47.63,1.43,1.18,2.98,1.76,4.62,1.08,3.02,2.19,6.15,3.98,9.12l.31.52.43.43c1.45,1.46,3.54,1.99,5.46,1.36,2-.65,3.14-2.15,3.91-4.3,2.07,2.14,4.36,4.19,7.04,6l.11.07c2.58,1.65,4.94,3.64,7.68,6.48,4.76,4.87,10.24,9.52,14.64,13.25l.31.26.34.21c2.49,1.5,4.91.93,6.35-.1.49-.35.88-.74,1.2-1.16,2.15,2.03,4.22,4.1,6.18,6.18,2.06,2.33,3.26,6.43,1.8,8.48l-.12.18c-.18.28-.65.84-1.44,1.6-2.62,2.41-2.08,4.98-1.73,5.98.72,2.03,2.57,3.35,4.81,3.46h.19s.19,0,.19,0c3.17-.09,6.04-1.11,7.9-1.94l.17-.08c7.95-3.94,13.7-11.31,19.26-18.44,1.36-1.74,2.68-3.43,3.99-5.02.3,1.49,1.08,2.67,2.57,3.54.86.51,3.93,1.91,7.21-1.37l.13-.13c.86-.93,2.29-2.74,4.75-5.87,3.21-4.1,7.58-9.66,10.52-12.77,1.89-1.41,3.91-2.73,5.98-4l.14.42c1.01,2.58,3.18,3.57,4.89,3.62,3.67.09,5.18-3.13,5.68-4.2l.18-.39c2.32-5.57,6.57-10.71,11.06-16.15,3.74-4.52,7.6-9.2,10.5-14.34,1.43-2.47,2.81-5,4.15-7.45.33.39.69.76,1.11,1.11l.36.27c1.51,1.04,3.33,1.29,5,.67,1.7-.62,2.96-2.04,3.46-3.89l.08-.37c1-5.29,2.65-10.42,4.4-15.86.79-2.44,1.6-4.96,2.34-7.49.87-2.65,1.67-5.34,2.44-7.95,1.04-3.5,2.04-6.89,3.19-10.17.83.87,1.92,1.6,3.25,1.93,1.79.43,3.63.01,5.05-1.15l1.25-1.02.42-1.56c.34-1.28.42-2.76.5-4.15l.16-2.66c.22-3.65.51-8.65.9-12.25.34-2.51.56-4.94.77-7.28.2-2.26.39-4.39.69-6.62.5-3.98,1.81-7.92,3.2-12.09.24-.72.48-1.45.69-2.09,2.22-6.44,3.06-12.3,3.43-17.42.83-.4,1.56-1.01,2.12-1.81,1-1.43,1.28-3.16.76-4.76-2.28-6.95-2.71-14.99-3.17-23.49-.11-2.07-.22-4.18-.37-6.29.32-.12.64-.26.96-.43,1.45-.72,2.47-2,2.82-3.52.31-1.4.03-2.85-.78-4.03,1.6-1.3,3.22-2.66,4.74-4.27,14.25-12.26,21.02-35.55,14.79-51.03ZM303.96,247.7c-2.43,2.64-5.41,4.68-8.08,7.04.79,1.18,1.79,2.44,2.67,3.66.13.16-.06.23-.13.27-1.46.76-2.77.34-4.04-.07-.04-.01-.11.04-.1.08,1.25,12.41.63,25.31,4.2,36.23.05.16-.06.51-.2.52-.35.03-.81,0-1.32-.04-.92-.08-1.33-.14-1.41.54-.25,6.6-.99,12.93-3.36,19.78-1.63,4.99-3.47,9.97-4.12,15.19-.63,4.69-.81,9.18-1.46,13.92-.5,4.66-.84,11.31-1.08,15.2-.06,1.17-.13,2.39-.34,3.18-.75.61-1.72-.37-2.03-1.09-1.01-2.4-2.08-4.83-2.89-7.31-.06-.17-.13-.31-.2-.38-.23-.23-.47.31-.61.52-4.62,8.83-6.75,18.63-9.82,28-2.33,7.94-5.34,15.75-6.88,23.9-.13.47-.42.65-.78.4-2.18-1.82-1.99-6.53-2.23-9.78-.03-.39-.24-.67-.57-.25-.05.07-.16.22-.21.3-3.45,5.69-6.44,11.65-9.78,17.4-6.14,10.9-17.2,19.88-21.86,31.08-.29.59-.98,2.31-1.47,1.07-.42-1.55-.09-3.17-.16-4.78-.01-.58.03-1.26-.02-1.76-.06-.4-.31-.42-.67-.24-4.46,2.65-9.09,5.28-13.26,8.43-4.95,5.15-13.54,16.77-15.6,18.99-3.76,3.76,1.21-10.24,1.27-11.7,0-.19-.13-.22-.35-.1-2.46,1.73-4.89,3.35-7,5.45-8.34,8.59-15.19,21.53-25.63,26.7-1.85.83-3.97,1.44-5.99,1.5-.56-.03-.38-.36.1-.79.73-.7,1.64-1.65,2.21-2.52,3.17-4.44,1.09-11.12-2.18-14.77-2.76-2.93-5.66-5.76-8.63-8.47-1.84-1.64-3.77-3.38-5.72-4.86-.37-.23-.39.07-.34.38.04,1,2.4,8.67-.14,7.14-4.84-4.11-9.84-8.38-14.3-12.93-2.7-2.79-5.37-5.15-8.57-7.2-4.99-3.37-8.61-7.9-12.28-12.16-.24-.24-.46-.38-.59.03-.02.08-.06.25-.08.34-.27.94-1.32,10.75-2.71,9.35-2.44-4.07-3.58-8.9-5.45-13.18-1.01-2.36-1.6-4.89-3.12-6.96-2.93-3.54-6.87-6.18-9.6-9.95-3.9-4.66-6.56-10.46-10.06-15.36-.2.58.03,1.94-.04,3.37-.12.97.22,2.35-.12,3.04-.93.38-1.88-1.29-2.41-1.9-1.24-1.94-2.49-3.92-3.79-5.88-.18-.23-.35-.42-.57-.19-.04.07-.12.2-.16.26-.25.8-3.01,8.34-3.45,4.59.46-8.97-2.33-18.23-5.11-26.76-.56-1.14-1.37-2.18-2.22-3.17-5.23-5.83-7.94-11.48-10.99-17.17-.17.02-.32.36-.39.53-1.03,2.33-1.84,5.11-4.11,6.44-.59.15-.8-.58-.77-1.07.03-3.02-.55-6.02-1.25-8.95-1.69-6.78-3.64-13.7-3.38-20.85-.01-.42-.05-.69-.44-.4-2.11,1.77-5.6,5.82-8.51,5.47-.67-.28-.19-1.11.18-1.51,4.27-5.98,5.62-13.17,6.52-20.13-.36-4.87-2.4-9.76-2.21-14.77-.04-.28-.07-.53-.38-.44-.06.04-.19.11-.26.15-1.2.93-2.69,2.03-4.24,1.15-.5-.29-.41-.88-.23-1.35.74-2.04,1.53-4.09,2.13-6.12,1.21-4.59.98-8.96,1.49-13.58.54-6.04-2.39-5.88-1.1-14.06-.99.29-1.99.62-2.96.79-1.17.15-1.94-1.14-1.2-2.05,1.53-1.61,3.77-4.54,3.82-5.25s-.51-1.88-.66-2.18c-.62-1.22-2.76-2.61-3.48-3.46-13.2-11.43-24.78-28.04-21-46.24,2.36-11.46,12.34-18.32,23.95-16.49.54.05,1.27.26,1.45-.08-.11-2.95-1.74-5.63-2.28-8.52-3.31-13.01,2.76-27.81,14.46-34.94,1.04-.72,1.85-1.77,1.83-3.09-.03-8.74,1.02-12.95,5.93-19.68.65-.88,1.25-1.81,1.61-2.82.41-1.12.56-2.38.36-3.61-1.7-12.87,10.87-19.73,18.07-28.33,3.01-4.51,4.37-10.02,5.27-15.23,1.11-8.77.23-18.39,4.89-26.22,39.68-53.82,114.52-56.84,158.81-3.47,3.57,5.3,5.78,11.25,6.66,17.62,1.18,10.37.6,22.58,8.35,30.64,3.1,2.96,6.11,5.98,8.87,9.21,3.41,3.57,4.67,4.84,4.74,9.81.25,2.11,1.13,6.79,1.86,8.81,5.22,7.79,5.62,13.61,5.3,23.69-.05,1.31.74,3.57,1.79,4.22,14.06,8.68,18.55,15.25,15.14,39.77-.14,1-.5,2.42,1.02,2.23,35.4-2.24,29.63,41.68,10.12,58.2Z"/><path class="cls-1" d="M181.65,215.44c2.41-4.33,9.91-.71,6.01,3.41-.21.3-.55.75-.44.95.04.07.15.09.31.07,1.13-.25,2.21-.61,3.32-.94,12.39-3.98,1.78-25.52-2.79-16.02-.53.64-.98,1.39-1.2-.06-1.06-6.44-3.89-13.14-9.76-16-14.34-5.8-33.6-1.71-33.97,16.23-1.69,1.28-1.56-4.32-4.53-2.71-4.19,1.44-6.35,4.61-5.38,8.79.8,3.86,3.82,10.18,8.45,10.36.78.04.8-.29.26-.9-3.21-3.7-.58-6.63,4.11-4.71.97.38,1.68,1.01,2.3,1.8,2.87,3.36,6.34,5.51,10.43,6.57,8.19,2.08,18.37,1.03,22.89-6.85Z"/><path class="cls-1" d="M35.23,247.77c1.64-4.24,3.04-9.16,4.57-13.41-1.19.07-2.5,1.9-3.44,1.99-1.99,0-3.2-1.89-3.88-3.49-1.03-3.2-2.35-6.3-3.86-9.36-.97-2.21-.78-4.54.96-6.34.62-.93-1.04-1.32-1.6-1.82-.81-.36-1.6-1.52-2.61-1.08-4.99,2.96-2.55,8.11-2.71,12.53-.06.43-.21.16-.3-.1-.67-2.24-1.52-4.58-2.97-6.58-2.09-2.7,1.49-9.96-1.11-8.62-.77.13-2.02.9-2.71.66,1.03-6.31,10.27-5.3,15.2-3.64.37.08.62.04.73-.17.48-2.9.38-6.33.72-9.23-.01-1.09.38-2.57-.71-3.3-1.89-.84-4.29-.67-6.48-.57-14.23,1.07-16.67,16.72-12.88,27.56,3.89,10.41,11.38,21.43,21.56,27.03,1.13.36,1.06-1.4,1.5-2.04Z"/><path class="cls-1" d="M185.52,253.59c-4.57-3.71-8.14-10.28-11.68-15.38-.29-.44-.46-.89-1.18-.63.25,1.6.63,3.14,1.03,4.76-1.39-.47-2.2-1.6-2.73-2.64-.25-.44-.5-.9-.83-1.31,1.51,4.93,10.76,14.09,15.39,15.2Z"/><path class="cls-1" d="M160.98,237.97c-1.65-.44-2.55.41-3.2,1.31-1.24,1.69-2.41,3.47-3.54,5.19-2.18,3.33-4.41,6.68-7.84,9.19-.01.03-.03.09-.04.16,6.43-3.09,11.09-8.14,14.63-15.84Z"/><path class="cls-1" d="M42.51,199.84c.34.03,1.15-.14,2.18-.44.47-.28.94-.56,1.41-.84-1.13-8.86-3.21-26.6-2.85-34.6.13-2.02.69-3.82,1.07-5.72,1.03,10.38,3.9,28.02,5.61,38.17,1.51-.82,3.04-1.63,4.62-2.41l-3.37-39.34c-.04-.35-.66-2.77-1.49-2.34-19,8.39-15.12,25.1-11.61,35.39,0,0,2.93,11.98,4.43,12.13Z"/><path class="cls-1" d="M203.18,202.85c-.25.02-.37.37-.48.6-.89,2.69-1.05,5.96-1.86,8.67-.05.38.13.64.44.81,10.93,5.67,41.37,29,60.04,15.76,3.42-3.85,4.81-10.41,2.95-15.9-1.96-5.77-7.4-10.41-12.69-12.07-14.44-4.53-28.67-10.71-43.56-10.77-2,.12-4.19.5-5.55,2.82-1.36,2.32,2.21,8.26,4.2,9.79,3.57,2.76,6.9,5.85,10.22,8.9,1.95,4.52-12.33-8.55-13.71-8.6Z"/><path class="cls-1" d="M267.9,156.38c-.55-5.26-5.91-6.68-9.38-9.06-61.68-32.42-137.18-30.25-198.89.88-5.22,2.65-3.7,8.04-3.26,13.35.42,5.04,2.34,21.84,2.51,30.38,3.11-1.44,6.33-2.8,9.65-4.1-1.55-9.25-3.07-18.5-4.17-27.64-.39-3.6.24-6.88.46-10.29.08-.64.75-.2.85.36,1.05,9.8,4.26,27.29,5.78,36.46,3.91-1.45,7.96-2.8,12.13-4.05-1.83-11.81-5.93-24.25-4.8-35.58,1.83,9.44,5.41,26.59,7.22,34.87,4.13-1.19,8.38-2.27,12.73-3.26-2.99-13.81-5.27-27.28-3.64-40.02,1.22,12.97,3.34,26.02,6.43,39.4,4.2-.9,8.49-1.7,12.87-2.4-2.52-13.5-4.36-26.78-3.17-39.7,2,13.13,3.11,26.18,6.07,39.24,5.17-.77,10.46-1.41,15.86-1.9-2.22-14.44-3.14-37-1.05-40.03.73,13.4,1.86,26.61,4.05,39.77,4.96-.4,10-.69,15.12-.85-.18-13.94-1.42-27.8.45-41.3.07-.57.76-.57.83.08l1.68,41.15c2.27-.05,4.55-.08,6.85-.08,3.63,0,7.21.07,10.77.19-.2-13.42-.46-26.71-.81-39.99.03-.53.62-.68.84-.09.57,3.7,1.37,7.39,1.6,11.11.54,9.69.83,19.39,1.17,29.08,5.7.25,11.31.65,16.8,1.2.5-10.53.94-21.07,1.28-31.6.08-2.85.07-5.69.09-8.54.78.7.96,1.43,1.07,2.17,1.66,12.68,1.2,25.45.16,38.24,5.42.59,10.73,1.32,15.91,2.19.96-5.6,1.98-11.21,2.74-16.8.82-6.31,1.24-12.58,1.76-18.87,2.16,11.55-.75,23.9-2.43,36.03,4.44.78,8.79,1.67,13.03,2.65,2.99-12.87,4.65-25.69,6.18-38.53,1.59,12.64-.93,25.99-3.12,39.26,4.52,1.11,8.92,2.33,13.19,3.66.53-2.34,1.03-4.64,1.35-6.75.7-4.84,1.12-9.62,1.65-14.43.47-4.7.96-9.41,1.38-14.11.05-.53.69-.86.79-.18,1.25,11.6-.21,23.89-2.28,36.39,4.08,1.33,8.03,2.76,11.85,4.29,1.3-12.22,1.77-24.63,2.77-36.65,1.02,2.64,1.82,5.44,1.71,8.54-.39,8.6-.48,17.4-1.12,26.03-.07.81-.17,2.02-.29,3.34,3.07,1.29,6.05,2.65,8.93,4.07,1.45-1.53,1.09-5.71,1.15-13.95-.65-7.48-.55-16.13-1.31-23.63Z"/><path class="cls-1" d="M55.9,129.51c.55.15,1.18.31,1.71.51.55.19.78.52,1.26.36,2.54-1.05,7.96-9.38,8.76-11,1.49-1.19-.08,2.24-.28,2.84-1.26,3.33-4.5,9.57-5.32,12.77-.11.43-.04.67.23,1.1.45.63.88,2.35,1.5,2.86.29-.14.94-.45,1.79-.86.04-.08.09-.16.13-.24.74-.3,1.48-.6,2.22-.9.01,0,.05-.02.08-.02.5-.24,1.03-.49,1.58-.74.16-.16.28-.34.3-.56.67-6.34,1.72-12.51,4.9-17.8-.86,5.65-1.65,11.26-2.42,17.08,2.31-1.03,4.53-1.93,5.85-2.28,3.03-6.12,3.87-15.16,7.63-20.71.33-.7.82-1.45.92-.54-1.09,4.91-3.45,14.6-4.3,18.73-.26.89-.28,1.46.8,1.12,1.46-.44,4.96-1.24,8.54-2.23.48-2.01,1.42-7.73,2.05-10.25.59-2.29,1.56-4.41,2.39-6.6.13-.23.53-.08.48.25-.67,6.09-1.27,9.75-1.83,15.69,3.58-1.13,6.62-2.43,6.91-3.72,1.15-5.54,2.94-11.15,5.03-16.43.24-.44.41-1.78,1.01-1.28-.54,4.77-2.54,12.43-3.32,17.79,0,.27-.12.54.14.55,1.75-.49,5.77-1.25,10.57-2.05.17-1.59.33-3.19.66-4.73.79-3.64,1.87-7.18,2.86-10.76.09-.33.58-.04.63.26-.58,4.88-1.13,9.77-1.66,14.82,3.17-.52,6.56-1.04,9.79-1.51.38-3.15.54-6.36,1-9.5.36-2.38,1.05-4.68,1.61-7.01.08-.23.52,0,.51.17-.34,5.29-.66,10.59-.96,16.03,4.65-.66,8.77-1.18,11.14-1.39,1.61-1.4,1.14-5.22,1.49-7.09,0-.65,1.74-15,2.5-12.19-.16,6.13-.71,12.43-.82,18.6.02.36.08.54.39.52,1.51-.15,4.61-.2,8.14-.25.1-.37.15-.81.14-1.36-.05-2.82.39-5.65.77-8.44.46-3.29,1.09-6.55,1.67-9.82.07-.43.61-.35.61.11-.35,6.43-.68,12.86-1.01,19.48,5.17-.08,10.7-.23,13.25-.77.8-6.04-1.31-18.45-.57-19.49,1.24,1.85,1.28,4.23,1.58,6.29.44,3.56.85,7.1,1.1,10.68-.04,2.33,1.34,3.08,3.38,3.14.89.09,2.78.29,5.05.52.06-6.84.12-13.63.17-20.43.71,1.21,1.06,2.46,1.13,3.74.27,5.07.59,10.15.58,15.24,0,.69.07,1.23.22,1.66,4.48.43,9.61.83,11.57.61.25-.06.27-.46.27-.7-.11-3.69-.85-7.57-1.01-11.26.06-.3.24-.11.36.01.99,1.43,1.14,3.71,1.56,5.44.57,2.28.23,5.01,1.61,6.98.87.31,3.5.89,6.97,1.62.08-4.27.16-8.56.22-12.85.55.59.78,1.26.81,1.96.16,3.52.22,7.06.4,10.58,0,.19.04.41.08.62,3.58.75,7.83,1.63,11.91,2.52.12-5.88.22-11.29.3-16.69.57.63.87,1.34.93,2.12.33,3.97.62,7.94.82,11.93.06,1.22.01,2.33.33,3.17,5.38,1.22,10.15,2.43,12.28,3.38-1.27-6.18-1.41-13.42-2.91-19.55-.09-.46.15-.2.32.07,3.93,5.52,3.21,13.76,5.3,19.99.74.83,5.63,2.43,6.51,2.83.9.28,1.87.68,2.87,1.12-.84-6.57-1.71-12.91-2.63-19.3,3.34,6.1,4.49,13.2,5.25,20.49,2.7,1.23,5.32,2.34,7.03,1.98.19-.08.59-.53.75-.66.63-.81,1.83-2.35,2.03-3.18-.75-2.95-4-10.17-5.92-13.57-.18-.63-3.07-5.47-1.16-4.26,3.85,3.74,6.28,8.82,8.24,13.84.15.33.3.54.66.54,1.05-.15,4.31,1.16,5.49.88.53-.2,1.27-.12,1.45-.65-.48-2.64-2.5-5.2-2.77-7.85,2.5,1.49,4.58,4.62,6.94,6.55,7.58-.4-19.16-22.67-20.64-23.2-3.7-2.68-9.33-5.34-12.23-8.26-8.36-8.11,10.31,1.49,12.12,2.18,2.85,1.33,9.77,6.13,12.82,6.84,1.2.25-.22-1.56-.58-1.96-16.15-18.37-38.41-32.54-60.3-41.45-1.55-.9-3.75-4.29-1.31-3.77,14.81,3.1,29.1,9.97,41.56,18.44,2.33,1.59.53.24.14-.22-9.92-10.8-22.39-18.22-35.54-25.32-.65-.46-.71-.96.13-.82,10.17,2.71,17.26,6.47,31.53,14.66.09.05-.16-.2-.13-.47.24-2.08-.32-6.69-2.84-8.74-5.13-4.17-11.36-6.98-17.31-10.35-.73-.41-1.91-1.52-.17-1.32,7.68,1.11,15.42,4.68,22.22,8.2.23.14.41.21.47.11.08-.29-.2-1.08-.46-1.37C193.9-4.74,125.05-2.8,83.88,54.52c-.18.54.55,1.04.89.97.57-.2,2.03-.45,2.79-.87,4.52-2.26,16.71-10.6,20.6-9.18.13.23-.2.57-.5.89-3.5,3.45-6.72,4.53-10.38,7.86-.46.43-16.64,12.27-13.22,11.17,8.67-4.9,24.24-12.14,33.2-14.44,6.5-1.53-13.14,9.16-14.34,10.42-6.86,4.34-21.3,15.14-22.19,17.86,13.47-7.55,30.04-19.47,46.02-20.76,1.5-.22-1.61,2.26-2.68,2.95-6.46,3.71-13.21,6.26-19.47,10.21-13.99,9.83-27.34,20.73-39.64,32.39-.33.31-1.15,1.71-.18,1.57,2.17-1.21,4.69-3.28,7.16-4.16,2.16-.89,6.88-3.2,11.36-4.63,2.24-.61,5.56-1.72,7.43-2.16.67-.12,1.13-.13.68.45-7.95,10.21-28.88,12.98-38.07,31.96-1.12,2.08,1.11,2,2.58,2.49ZM217.77,95.2c0,.2-.14.4-.32.4-.15.04-.29-.28-.34-.4-.91-2.43-1.89-4.92-2.84-7.34-1.23-3.12-2.49-6.32-3.62-9.45,4.14,4.75,5.99,11.17,7.13,16.78ZM210.4,94.4c.05.47-.37.68-.58.21-2.33-7.05-4.69-14.11-7.16-21.4,3.37,3.79,7.53,15.39,7.73,21.19ZM186.39,87.36c-1.2-5.92-2.42-11.84-3.64-17.75-.07-.14.34-.6.57-.12,2.15,5.74,3.59,11.63,3.67,17.82,0,.28-.54.32-.6.05ZM200.09,47.55c-1.91-5.28-3.83-10.57-5.86-16.11,2.72,2.69,6.14,11.84,5.86,16.11ZM194.32,73.98c.85-.14,1.22.92,1.51,1.73,2.52,5.93,4.19,12.11,4.87,18.25.02.25-.19.44-.43.51-.38.13-.59-.2-.66-.54-1.34-4.88-3.1-11.23-4.97-17.87-.06-.58-.72-1.61-.31-2.08ZM193.32,45.48c-.15.6-.2.66-.55.18-2.08-6.23-4.17-12.47-6.29-18.7,3.82,5.62,5.73,11.94,6.84,18.52ZM181.44,28.24c1.66,5,3.31,10,4.94,15,.61,2.42-.94.62-1.08.33-1.57-5.02-3.6-11.29-5.19-16.31-.27-.98.98.36,1.33.98ZM176.45,45.09c-.95-3.85-1.82-7.82-2.67-11.66-.54-2.82-1.43-5.7-1.83-8.55,3.1,4.41,5.57,14.88,4.5,20.22ZM171.15,71.4c2.11-.24,2.49,13.92,2.36,16.01-.28.91-1.49.67-1.38-.28-.07-4-.41-6.95-.75-9.81.05-.65-1.02-5.9-.23-5.92ZM151.65,71.32c.25.05.41.32.4.67-.28,3.82-.79,9.88-1.1,13.5-.08.96-.24,2.83-.23,2.82-.35.52-1.21-.17-1.17-.62.13-1.36-.06-15.07,2.1-16.37ZM150.85,24.58c-1.48,6.73-2.83,13.53-4.4,20.24-.68-5.96.54-12.67,4.4-20.24ZM140.92,71.93c-1.51,6.46-3.01,12.93-4.5,19.39-.06.21-.95.17-.85-.22.83-6.64,2.07-13.19,4.81-19.35.2-.36.74-.34.54.18ZM141.71,28.84c.48-1.36.61.73.5,1.19-1.37,5.04-3.16,12.33-3.39,12.89-.23.56-1.37,1.9-1.26,1.28,1.37-5.04,2.76-10.32,4.16-15.37ZM137.02,26.94c-1.97,6.28-3.92,12.56-6,19.34-.85-3.65,2.69-15.08,6-19.34ZM122.17,49.12c.04-6.03,2.76-12.83,7.42-19.43-2.46,6.47-4.73,13.07-7.42,19.43ZM123.73,92.07c1.03-7.43,2.79-14.65,6.54-21.29-1.96,7.17-3.89,14.34-5.81,21.51-.14.53-.84.26-.74-.22ZM121.1,72.76c-2.41,7.41-4.69,14.47-7.12,22.13-.92-4.19,3.7-18.17,7.12-22.13ZM113.33,76.39c-2.16,5.91-4.26,11.74-6.49,18.01-.55-3.91,3.62-15.1,6.49-18.01Z"/><path class="cls-1" d="M197.53,267.29c-1.09-1.8-1.28-4.12-3.53-5.01l-.1.07,3.55,4.99.08-.06Z"/><path class="cls-1" d="M181.55,240.59c-1.3-1.57-2.35-3.43-3.99-4.72l-1.74,1.21c3.11,7.2,13.8,18.01,21.47,19.63-6.09-3.98-11.33-10.11-15.74-16.12Z"/><path class="cls-1" d="M259.53,256.23c-.53-.83-1.13-1.63-1.72-2.4-.67-.84-1.32-2.26-2.59-1.4-1.43.83-2.86,1.63-4.28,2.48-.12.07-.26.33-.36.5,6.2,5.12,10.99,11.54,14.26,19.1-.05.15-.18.22-.38.2-3.7-5.71-8.94-12.95-16.65-18.48-2.06.81-4.13,1.66-6.21,2.53,2.88,5.35,6.09,10.37,9.03,15.72,7.67,13.93,10.44,26.61,11.75,43.1-.33-.12-.74-.19-.83-.59-1.14-7.01-2.46-13.28-4.12-19.09-4.12-15.14-11.54-24.6-19.15-37.22-1.19,1.12-1.82,2.22-1.18,3.82.95,2.39,1.71,4.81,2.58,7.2-1.28-1.27-2.53-2.99-3.28-4.32-1.27-2.17-1.65-2.77-2.44-2.92,3.56,7.12,6.35,14.62,8.48,22.75-1.31-.41-1.33-1.86-1.9-2.87-.68-1.62-1.41-3.3-2.24-4.88-3.03-5.55-6.06-12.7-10.74-17.07-.39-.16-1.92.13-2.94.74l4.14,7.12c-1.94-1.57-3.77-3.41-5.39-5.17-.46-.48-1.3-1.53-1.87-1.51-1.52.06-3.24.3-4.88.48,2.24,3.27,4.93,6.1,7.55,9.1,8.49,9.22,13.74,20.09,16.19,32.47.9,3.39,3.83,28.54.09,30.81-.32-24.94-7.4-49.93-24.46-70-.7-.74-1.31-2.05-2.26-2.42-1.39-.13-2.87-.06-4.31-.06,5.27,8.4,11.08,16.78,14.11,26.12,1.7,4.97,4.08,9.86,4.86,15.07-1.14-1.8-2.01-3.8-2.85-5.83-5.48-12.32-11.54-23.22-18.97-34.4-.61-.9-1.44-1.32-2.68-1.35-1.97.05-3.94-.54-5.86-.38,4.49,11.56,11.34,21.97,16.4,33.25-.6-.04-1.29-.37-1.44-.79-.75-1.29-1.49-2.6-2.21-3.87-4.57-8.6-10.48-16.61-17.08-23.67-1.38-1.53-2.83-3.11-4.13-4.71-1.48-1.89-3.06-3.78-5.7-3.9.76,2.15,1.8,4.18,2.68,6.25,3.35,7.13,5.31,13.8,10.29,20.49,4.57,5.92,8.86,12.14,11.84,19.05.42.99-1.21-.73-1.41-.98-3.33-5.48-6.34-10.8-10.91-16.43-6.33-8.09-10.54-17.28-15.03-26.22-.82-1.63-1.78-3.22-2.72-4.76-.4-.67-.77-1.37-1.69-1.46.59,4.76,1.78,9.85,3.65,15.7l-.88.28-4.53-10.66-.06.02c1.82,6.73,4.84,13.27,7.67,19.67,9.17,19.66,14.12,40.2,6.9,62.3-.23.07-.41-.31-.39-.76,1.53-18.24,1.44-33.17-6.03-52.12-4.68-12.1-11.79-26.09-13.3-38.21-.55,12.38,1.99,25.6,3.95,37.61,1.97,11.54,6.59,22.67,5.06,34.6-.19.08-.54-.45-.66-.84-.66-7.34-3.43-16.22-5.11-22.01-5.63-16.99-4.92-30.49-6.5-47.06-1.88,5.08-2.46,10.74-2.77,16.4-.38,10.47-.7,20.68-1.07,31.15-.64,17.06-1.16,34.5-2.91,51.45-1.32-4.08-.65-8.67-.72-12.96.09-29.2,1.87-58.75,2.32-87.91-3.03,5.68-4.26,11.27-6.23,17.08-3.13,8.63-4.75,17.76-5.95,26.83,0,0,0,.03,0,.04-.03.21-.82.2-.81-.07,0-.03,0-.05,0-.05.43-13.49,3.85-26.93,7.23-39.79-2.42,1.22-3.25,3.98-4.28,6.3-3.53,7.63-5.93,15.77-8.53,23.72-9.02,25.8-13.97,50.7-19.06,76.42-.89,5.04-1.28,10.31-.73,15.46-.05.97-.82.69-.96,0-2.92-13.35.45-27.08,3.41-40.21,2.24-13.87,6.07-28.22,10.77-41.3,4.54-12.52,9.64-24.89,13.44-37.62-2.43.57-3.94,1.29-4.83,3.17-.88,1.82-2.18,3.44-3.29,5.12-10.09,13.83-16.99,29.43-23.64,45.31-.4.32-.69.21-.86-.33,6.02-17.21,13.45-34.05,22.7-49.94-2.1.47-3.64,1.42-4.95,3.04-2.37,2.93-4.76,5.92-7.07,8.81-2.43,3.06-4.9,6.13-7.41,9.14-.31.37-.47.23-.24-.2,3.56-6.7,7.6-12.94,12.5-19.1-4.93.52-12.12,15.43-14.69,20.26-5.01,10.64-9.39,22.8-10.5,34.26-1.15,12.97-3.61,25.96-3.64,39.04.04.91-.17.59-.38.13-1.55-3.53-1.89-7.5-1.9-11.37.5-18.27.88-31.61,6.69-47.56,5.4-12.25,9.89-22.56,18.02-34.04-4.1.03-8.12.32-12.24.26-1.54-.02-2.44.39-3.12,1.5-.57,1.02-1.79,2.26-3.37,2.56l2.46-4.32c-2.26-.44-4.68-1.69-6.18.79-6.11,9.05-10.9,18.47-14.66,28.65-.19.41-.64.78-.9,1.16,1.58-11.81,7.51-22.08,13.6-32.15,0,0-1.02-.21-1.02-.21-1.57-.18-3.15-1.16-4.43.12-4.79,3.63-7.44,8.99-10.97,13.66-.33.23-.54.11-.63-.38l6.77-15.06c-1.34-.21-1.39-.13-2.13,1.18-.65,1.14-1.32,2.3-1.97,3.43-5.8,9.82-10.82,20.26-14.49,31.02.04-4.92,1.7-9.53,3.21-14.06,2.19-6.96,6.19-16.49,9.45-23.81-1.52-.64-3.04-1.26-4.55-1.94-.55-.25-.9-.06-1.34.38-1.48,1.48-3.35,3.38-4.84,4.88-.36-.04-.57-.21-.64-.52l3.78-5.96c-.64-.4-1.26-.79-1.9-1.15-2.3-1.15-4.45-2.95-6.95-3.69-3.77,4.65-5.46,9.57-8.33,15.7-1.61,3.78-2.66,7.68-4.4,11.42-4.26,10.11-12,20.21-14.74,31.61-1.06,4.43-2.25,8.81-3.52,13.14-.07.31-.13.78.31.55,3.6-2.38,4.56-7.46,7.18-10.11.54,2.41-.71,5.2-.84,7.71-1.52,9.23-2.99,17.15-.11,27.21.15.43.37,1.16.67.45,2.05-9.78,2.86-19.99,5.91-29.56.66-1.16.99.12.8,1.02-3.18,17.43-6.36,22.86,3.71,38.89.39.49.57.94.66.63-.15-1.07-1.15-6.72-1.35-8.04,1.02-2.08,2.22,5.39,2.97,6.75.22.66.53,1.94,1.01,2.28-1.36-14.62-1.84-27.43,1.5-38.33.85,18.29.64,37.02,5.6,54.99.31.76,2.96,9.75,3.57,7.38.88-13.82.37-28.25,3.01-40.71.07-.82.72-2.54,1.42-2.59,2.38,24.18-.43,52.59,17.87,71.5.56.49,1.62,1.94,1.38.74-3.18-9.9-8.42-20.79-6.13-31.07,3.57,17.3,9.43,34.17,16.72,49.73-1.58-17.98-8.8-39.13-5.31-57.68,1.49,20.74,3.62,45.1,19.55,61.92-3.36-8.48-12.09-21.44-13.4-32.86-.56-8.13-1.61-18.11,1.16-26.6,2.2,9.75,1.57,19.34,3.94,29.25,5.43,18.75,14.34,37.43,29.07,50.26-8.29-19.44-23.77-37.93-19.51-59.61.65.88.52,2.18.63,3.28,1.47,24.14,14.07,43.59,31.34,59.53,6.29,5.67,16.17,10.88,15.47,20.57.02.24.11.34.27.28.77-.5,1.34-1.41,1.94-2.17,9.48-13.36,17.72-24.48,23.37-41.11.29-.93.83-2.75,1.88-2.72.67-.17-3.79,11.66-1.71,8.47,10.67-16.71,19.71-35,19.28-55.33.29-.96-.27-12.67,1.35-9.65.76,9.8.88,20.56-.68,30.19-4.39,15.06-13.37,30.46-19.65,43.2.06.33.67-.01.89-.17,3.48-2.85,7.73-5.3,10.86-8.46,6.15-8.42,10.57-17.54,14.38-27.33.19-.84,1.43-1.84,1.22-.34-3.3,14.8-12.77,27.14-18.65,40.4,6.97-8.12,14.21-16.54,19.46-25.94,10.97-17.83,17.31-43.18,20.01-63.61-.03-1.04.65-2.73.99-.81,1.97,53.34-40.95,89.79-16.53,69.51,4.99-4.9,10.86-20.8,13.02-24.53.12-.32.7-.17.72.17-.94,4.85-3.53,12.83-4.02,17,18.06-21.76,24.98-54.18,25.12-83.13,1.47-3.93,2.87,12.9,2.67,14.47.1.87-.08,2.04.11,2.84.49-1.46.49-3.27,1.27-4.71.51-.97.57-.45.6.14.08,11.46-2.54,23.88-1.44,35.31,9.33-25.52,9.45-48.37,6.3-76.3.03-1.49.68-1.03.99-.05,1.62,6.71,2.57,13.64,3.45,20.39.13.72.15.67.24-.03.22-3.76.33-7.51.72-11.28.03-.3.15-.84.48-.53,2.07,7.95,1.01,15.66.48,24.74-.81,5.77,3.66-6.28,3.58-7.12.04-.22.17-.67.37-.43.52.85.69,1.99,1,2.99,1.42,5.37,1.53,1.35,1.65-1.31,1.75-18.09-1.59-36.47-8.61-54.96-3.86-11.22-8.58-22.5-14.88-32.17ZM57.26,317.67c-.04.1-.13.08-.15-.06-.05-.46-.13-1.02-.17-1.36-.23-1.31.16-2.48.24-3.75.28-2.46.57-5.01,1.05-7.48,1.75-10.8,10.62-22.09,16.75-31.78.28-.17.48-.11.57.25-6.61,14.85-13.23,29.9-18.29,44.19ZM86.06,340.72c-.1.33-.39.69-.64,1.04-.11.15-.34.11-.37-.06-1.45-9.09,2.59-31.06,6.37-35.51l.5-.57-5.87,35.11ZM93.63,395.57c-2.69-7.05-4.18-24.79-1.95-29.68.8.86.66,1.89.64,2.84.09,2.12.18,4.27.26,6.35.2,6.46.53,13.08,1.33,19.52.01.21.04.57.07.93.03.39-.21.4-.35.03ZM116.08,350.04c-1.6,8.59-2.32,16.16-2.21,23.15l.02,1.01-.88-1.73c-1.91-4.11-.72-17.64,2.65-22.61l.63-.93-.21,1.11ZM142.22,420.53l-.06-.17c-4.47-12.67-1.76-27.95-.29-40.22.02-.53.43-1.4,1.05-1.93.45,13.83-.98,28.05.3,42.14-.29.6-.56.71-1,.19ZM146.93,369.05l-.31,2-.31-.85c-.05-.15-.13-.29-.2-.43-.15-.29-.3-.58-.33-.94-.98-10.63-.81-20.65.5-29.77l.67-2.62-.02,32.61ZM158.48,460.54c-1.47-3.5-2.13-7.39-3.22-10.97-3.21-11.31-5.8-20.27-5.45-33.51,0-2.32,0-4.72.02-7.08-.02-.36.14-.71.37-1.02.12-.17.5-.12.54.07.05.19.09.39.12.58,2.22,16.59,4.8,34.34,8.55,51.64-.22.32-.55.38-.93.3ZM167.42,459.34c-.06.18-.16.59-.21.79-10.17-21.57-6.33-41.32-4.7-65.41.19-2.35.34-4.77.81-7.1,0,0,.07-.43.52-.37s.44.5.44.5c-.05,12.17-.45,24.23-.54,36.48-.15,10.84.27,21.86,3.2,32.26.12.94.68,1.91.48,2.86ZM169.49,324.08c-.02-.35.77-.44.83-.15,0,.04.03.11.03.11,2.18,9.61,2.33,20.54,2.68,32.24.12,3.61.22,7.39.22,11.08-4.73-13.84-2.69-29.11-3.76-43.22,0,0,.02.29,0-.06ZM173.6,465.17c-.41.16-.72.1-.92-.19,2.85-11.28,5.37-22.5,7.9-33.93,3.97-19.18,4.69-42.57,4.01-61.45.28.39.83.83,1,1.22,9.06,33.57-1.07,63.32-11.99,94.35ZM201.29,391.83l-.35.97-3.93-37.34.61,1.38c3.22,7.35,5.87,28.79,3.67,34.98ZM196.72,308.68l.84,1.23c5.85,8.36,8.98,19.26,9.71,31.72l-10.55-32.95ZM226.62,374.07c-.07-.48-.29-1.04-.3-1.51.49-9.3-.42-17.66-.93-26.53-.61-9.33-.77-17.52-3.73-26.98-.31-1.18-.58-2.65-.87-3.86l.82,1.68c7.85,13.87,9.59,46.1,5.02,57.21ZM251.61,358.8c-.81-11.6-2.24-22.98-2.62-34.55-.73-10.59-3.09-20.39-6.4-29.77-.05-.17.03-.32.06-.46l.09-.47.29.38c6.4,7.43,14.23,52.67,8.57,64.88Z"/><path class="cls-1" d="M115.5,251.91c-5.39,3.45-9.94,4.55-15.15,5.2v.11c8.68,1.04,16.82,1,24.31-4.92,8.32-6.46,15.61-10.37,21.06-19.24.31-.46.47-.73.13-1.08-1.19-1.38-3.91,2.21-4.94,2.93-5.85,5.38-14.48,10.83-21.08,12.53,6.72-4.37,18.01-10.6,20.93-17.25-12.07,5.61-42.38,22.51-53.47,16.94,15.33.2,28.48-6.83,41.94-13.26,2.09-1.01,4.1-2.28,6.04-3.5.95-.7,2.17-1.1,2.91-2.07-2.47-1.04-4.57-.8-6.78.76-2.09,1.47-4.38,2.74-6.6,3.96-2.38,1.35-4.96,2.41-7.41,3.62,2.41-1.98,5-3.98,7.44-5.82,1.15-1.02,6.73-4.49,5.46-6.12-3.4.61-6.23,3.1-9.16,4.62-4.72,2.82-10.93,6.54-17.08,8.36,1.04-1.18,2.31-2.27,3.69-2.85,7.14-3.35,13.68-7.8,19.54-12.76-2.92.86-6.23,2-9.23,3.86-1.19.79-2.72,1.4-4.32,1.27,4.12-3.37,8.27-5.89,12.61-7.53-1.17-.48-4.66,1.62-5.97,2.19-3.92,2.18-7.71,4.45-11.65,6.61-5.79,3.42-12.56,5.51-18.95,7.61-4.84,1.76-9.66,2.39-14.21,1.42-2.73-.34-5.56-.7-7.98-2.37,2.59,3.03,6.67,3.97,10.07,5.91-7.87.55-14.18-4.23-20-9.58.89,4.24,4.12,7.57,8.26,11.4,14.96,11.88,32.79,15.6,50.13,7.69l.38-.12c-.12.6-.36,1.18-.9,1.49Z"/><path class="cls-1" d="M278.99,199.9c.87-12.65.85-25.71-.39-37.18.99,1.81,2.09,3.59,2.55,5.78,1.74,9.27,1.31,19.64.81,30.01-.05.84-.09,1.68-.12,2.51,1.74-.78,1.81-3.88,2.99-6.84,1.59-5.8,2.08-26.49.19-29.56,0,0-3.97-7.15-12.26-9.55.28,1.34.61,37.58,1.4,42.06,1.65.9,3.26,1.82,4.83,2.77Z"/><path class="cls-1" d="M254.85,247.53c6.39-4.39,11.68-7.97,15.35-15.81-7.99,6.29-16.99,11.3-27.32,9.24,2.34-.61,4.78-.74,7.11-1.34,3.48-1.04,7.42-2.6,10.36-5.34-7.66,4.13-20,3.45-29-.16-8.42-2.1-17.41-9.28-26.43-13.85-.68-.38-1.8-.95-2.49-1.34-.41-.23-.9.06-1.49,0l22.49,14.82c-1.04-.36-2.45-.59-3.4-1.04-4.99-2.33-9.52-5.43-14.36-8.06-1.31-.73-2.72-1.36-4.08-1.97-.81-.17-2.36-1.66-2.85-.48,1.68,2.93,4.48,5.02,6.99,7.24,5.51,5.12,11.51,8.2,18.09,11.38-8.03-.31-19.6-9.06-27.48-14.45-1.32-.76-3.58,1.36-4.89,1.92,8.51,6.45,18.33,13.77,29.86,17.78-.64.13-1.56.35-2.1.11-9.12-2.49-20.7-9.64-29.1-15.27-.97-.59-2.14-.94-3.26-1.29-.19-.05-.66.2-.93.3,2.98,4.32,7.23,8.71,12.17,12.93-6.05-2.5-10.82-6.91-15.52-11.1l-1.61,1.48c5.67,9.41,21.5,25.8,33.24,25.17-5.06-.56-16.43-8.54-16.13-12.34,8.96,7.92,17.96,11.45,27.3,10.34-4.45-1.58-10.97-3.7-13.89-7.84l-.47-.74c13.06,9.47,31.04,8.13,43.84-.33Z"/><path class="cls-1" d="M284.1,252.45c2.43,3.71,5.18,7.91,6.71,12.69,0,0,.05.13.07.1.02-.02.01-.11.01-.11-.27-3.86-1.51-7.52-2.96-10.94-5.2-8.34-9.17-17.69-13.07-26.77-.46,10.66-10.06,18.3-17.59,23.81,11.36,10.98,19.38,28.38,24.12,43.95,1.76,6.05,4.63,11.91,5.4,18.18,1.19-5.98.43-11.53-.12-17.41-.05-.58.14-.69.48-.25,1.05.46,2.4,12.82,3.22,10.08,1.11-7.05.81-14.53-2.21-21.42-.15-.45.13-1.89.75-1.47.47.51,2.16,2.4,2.89,3.21.41.42.45.66.87.6-.67-12.47-3.86-22.89-8.96-34.02.07-.24.19-.31.38-.21ZM287.83,280.59l-.78.36c-2.92-11.25-11.92-21.6-18.61-31.5-.16-.34-.08-.91-.18-1.31l.42.38c10.29,9.24,16.55,19.73,19.14,32.08Z"/><path class="cls-1" d="M293.93,195.13c-1.43.38-1.38,1.96-1.29,3.14.32,3.35.24,7.03.93,10.31,5.87-1.27,12.63-2.86,14.56,2.95.25.74.42,1.74.26,2.45-.4.6-1.41-.56-1.9-.72-4.36-3.48,1.33,3.95-4.64,14.14-.79,1.26-.48-1.94-.67-2.34-.56-2.8-.27-6.18-1.89-8.6-2.45-2.13-4.11,1.44-4.88,3.33-.38.92-.97,1.77-.98,2.8.04,4.49-1.83,8.72-4.78,11.98-.93,1.08-2.54,1.58-3.7,2.4-.32.25-.32.57-.16.94,2.15,4.08,4.49,7.45,6.78,11.49.33.22.66.42,1.01.58,4.76-4.05,9.02-7.95,12.84-12.87,11.54-13.2,13.26-44.72-11.51-41.98Z"/><path class="cls-1" d="M127.25,191.3c.83-3.02-7.49-3.53-10.54-3.25-2.11.2-32.29,3.31-46.31,14.49-6.25,4.99-7.63,14.19-4.67,22.28,10.91,13.42,21.93,7.1,37.75.77,11.36-5.25,24.01-12.08,24.51-12.24.51-.22,1.95-.75,1.82-1.41-1.14-2.2-1.88-5.12-3.31-7.05-3.69,2.24-7.64,5.24-12,5.45-.2,0-.3-.05-.25-.16,3.23-3.22,6.57-5.64,9.85-8.42,1.69-1.51,2.8-8.08,3.15-10.47Z"/><path class="cls-1" d="M156.2,236.94c-.59-.38-1.88-.55-2.37-.6-1.15-.07-2.19,2.32-2.95,3.29-3.72,5.21-6.81,10.92-11.21,15.66-.16.16-.32.32-.49.49,4.59-1.77,16.11-14.45,17.01-18.84Z"/><path class="cls-1" d="M149.45,237.4c.6-.93,1.9-2.26.14-2.75-10.74,8.03-19.71,19.55-32.61,24.15l-.26.11v.09c12.15,2.09,26.16-13.28,32.74-21.59Z"/></svg>