<?xml version="1.0" encoding="UTF-8"?>
<svg id="Layer_1" data-name="Layer 1" xmlns="http://www.w3.org/2000/svg" viewBox="0 0 24 38">
  <defs>
    <style>
      .cls-1 {
        fill: #fff;
        stroke-width: 0px;
      }
    </style>
  </defs>
  <path class="cls-1" d="M.01,18.99c0-5.37.01-10.74-.01-16.11C0,1.67.46.78,1.58.28,2.72-.24,3.78-.02,4.71.79c1.44,1.27,2.87,2.56,4.3,3.84,4.65,4.17,9.3,8.34,13.96,12.49.69.61,1.13,1.27,1.02,2.22-.08.63-.44,1.09-.89,1.5-2.3,2.06-4.6,4.12-6.9,6.17-3.79,3.38-7.59,6.76-11.38,10.13-1.3,1.16-3,1.14-4.16-.04-.47-.49-.65-1.08-.65-1.74,0-5.46,0-10.91,0-16.37Z"/>
</svg>
